
<svg width="203px" height="35px" viewBox="0 0 203 35" version="1.1" xmlns="http://www.w3.org/2000/svg" xmlns:xlink="http://www.w3.org/1999/xlink">
    <!-- Generator: Sketch 51.2 (57519) - http://www.bohemiancoding.com/sketch -->
    <desc>Created with Sketch.</desc>
    <defs></defs>
    <g id="Page-1" stroke="none" stroke-width="1" fill="none" fill-rule="evenodd">
        <g id="home2" transform="translate(-100.000000, -39.000000)" fill="#FF3A3E">
            <g id="Group-8" transform="translate(100.000000, 38.000000)">
                <path d="M17.8599222,35.8178218 C7.99615953,35.8178218 0,28.1579015 0,18.7089109 C0,9.25992032 7.99615953,1.6 17.8599222,1.6 C27.7236848,1.6 35.7198444,9.25992032 35.7198444,18.7089109 C35.7198444,28.1579015 27.7236848,35.8178218 17.8599222,35.8178218 Z M17.8257732,28.8780627 C25.2566001,28.8780627 31.2804756,23.0639064 31.2804756,15.891781 C31.2804756,8.71965561 25.2566001,2.90549922 17.8257732,2.90549922 C10.3949463,2.90549922 4.37107082,8.71965561 4.37107082,15.891781 C4.37107082,23.0639064 10.3949463,28.8780627 17.8257732,28.8780627 Z M17.7574752,26.1983538 C11.0810469,26.1983538 5.66873247,21.122503 5.66873247,14.8611237 C5.66873247,8.59974441 11.0810469,3.52389359 17.7574752,3.52389359 C24.4339035,3.52389359 29.8462179,8.59974441 29.8462179,14.8611237 C29.8462179,21.122503 24.4339035,26.1983538 17.7574752,26.1983538 Z M17.7233262,21.5947513 C22.7589374,21.5947513 26.8411068,17.7494098 26.8411068,13.0059406 C26.8411068,8.26247143 22.7589374,4.41712991 17.7233262,4.41712991 C12.6877151,4.41712991 8.60554568,8.26247143 8.60554568,13.0059406 C8.60554568,17.7494098 12.6877151,21.5947513 17.7233262,21.5947513 Z M17.7916242,19.4647262 C13.8121712,19.4647262 10.5861871,16.219258 10.5861871,12.21577 C10.5861871,8.21228204 13.8121712,4.96681379 17.7916242,4.96681379 C21.7710772,4.96681379 24.9970613,8.21228204 24.9970613,12.21577 C24.9970613,16.219258 21.7710772,19.4647262 17.7916242,19.4647262 Z M17.5525813,13.2120721 C19.5140178,13.2120721 21.1040763,11.5508845 21.1040763,9.50170583 C21.1040763,7.45252716 19.5140178,5.79133962 17.5525813,5.79133962 C15.5911447,5.79133962 14.0010862,7.45252716 14.0010862,9.50170583 C14.0010862,11.5508845 15.5911447,13.2120721 17.5525813,13.2120721 Z" id="Combined-Shape"></path>
                <path d="M50.4033619,25.288 C48.9313545,25.288 47.7673661,24.7520054 46.9113619,23.68 C46.0553576,22.6079946 45.6273619,21.1120096 45.6273619,19.192 C45.6273619,17.9759939 45.8593595,16.9040046 46.3233619,15.976 C46.7873642,15.0479954 47.407358,14.3320025 48.1833619,13.828 C48.9593657,13.3239975 49.7953574,13.072 50.6913619,13.072 C51.315365,13.072 51.8753594,13.1839989 52.3713619,13.408 C52.8673643,13.6320011 53.4113589,13.9759977 54.0033619,14.44 L53.9313619,12.424 L53.9313619,7.864 L55.6593619,7.864 L55.6593619,25 L54.2193619,25 L54.0753619,23.584 L54.0033619,23.584 C53.5073594,24.0960026 52.9513649,24.5079984 52.3353619,24.82 C51.7193588,25.1320016 51.0753652,25.288 50.4033619,25.288 Z M50.7873619,23.8 C51.3473647,23.8 51.8793593,23.6640014 52.3833619,23.392 C52.8873644,23.1199986 53.4033592,22.7040028 53.9313619,22.144 L53.9313619,15.832 C53.4193593,15.3839978 52.9233643,15.060001 52.4433619,14.86 C51.9633595,14.659999 51.4673644,14.56 50.9553619,14.56 C50.2993586,14.56 49.7033645,14.759998 49.1673619,15.16 C48.6313592,15.560002 48.2073634,16.1119965 47.8953619,16.816 C47.5833603,17.5200035 47.4273619,18.3119956 47.4273619,19.192 C47.4273619,20.6320072 47.7193589,21.7599959 48.3033619,22.576 C48.8873648,23.3920041 49.7153565,23.8 50.7873619,23.8 Z M68.9526952,18.52 C68.9526952,18.9360021 68.9286954,19.2879986 68.8806952,19.576 L60.8406952,19.576 C60.9206956,20.9360068 61.3406914,21.9919962 62.1006952,22.744 C62.860699,23.4960038 63.7926897,23.872 64.8966952,23.872 C65.9207003,23.872 66.9046905,23.5600031 67.8486952,22.936 L68.4966952,24.088 C67.9206923,24.4560018 67.3286982,24.7479989 66.7206952,24.964 C66.1126921,25.1800011 65.4326989,25.288 64.6806952,25.288 C63.6566901,25.288 62.7246994,25.0440024 61.8846952,24.556 C61.044691,24.0679976 60.3806976,23.3600046 59.8926952,22.432 C59.4046927,21.5039954 59.1606952,20.4240062 59.1606952,19.192 C59.1606952,17.9759939 59.4046927,16.9040046 59.8926952,15.976 C60.3806976,15.0479954 61.0246912,14.3320025 61.8246952,13.828 C62.6246992,13.3239975 63.4726907,13.072 64.3686952,13.072 C65.8087024,13.072 66.9326911,13.5559952 67.7406952,14.524 C68.5486992,15.4920048 68.9526952,16.8239915 68.9526952,18.52 Z M67.3926952,18.304 C67.3926952,17.0719938 67.1286978,16.1280033 66.6006952,15.472 C66.0726925,14.8159967 65.3366999,14.488 64.3926952,14.488 C63.5286909,14.488 62.7606985,14.8159967 62.0886952,15.472 C61.4166918,16.1280033 61.0166958,17.0719938 60.8886952,18.304 L67.3926952,18.304 Z M81.0940285,18.52 C81.0940285,18.9360021 81.0700287,19.2879986 81.0220285,19.576 L72.9820285,19.576 C73.0620289,20.9360068 73.4820247,21.9919962 74.2420285,22.744 C75.0020323,23.4960038 75.934023,23.872 77.0380285,23.872 C78.0620336,23.872 79.0460238,23.5600031 79.9900285,22.936 L80.6380285,24.088 C80.0620256,24.4560018 79.4700315,24.7479989 78.8620285,24.964 C78.2540255,25.1800011 77.5740323,25.288 76.8220285,25.288 C75.7980234,25.288 74.8660327,25.0440024 74.0260285,24.556 C73.1860243,24.0679976 72.5220309,23.3600046 72.0340285,22.432 C71.5460261,21.5039954 71.3020285,20.4240062 71.3020285,19.192 C71.3020285,17.9759939 71.5460261,16.9040046 72.0340285,15.976 C72.5220309,15.0479954 73.1660245,14.3320025 73.9660285,13.828 C74.7660325,13.3239975 75.614024,13.072 76.5100285,13.072 C77.9500357,13.072 79.0740245,13.5559952 79.8820285,14.524 C80.6900325,15.4920048 81.0940285,16.8239915 81.0940285,18.52 Z M79.5340285,18.304 C79.5340285,17.0719938 79.2700311,16.1280033 78.7420285,15.472 C78.2140259,14.8159967 77.4780332,14.488 76.5340285,14.488 C75.6700242,14.488 74.9020319,14.8159967 74.2300285,15.472 C73.5580251,16.1280033 73.1580291,17.0719938 73.0300285,18.304 L79.5340285,18.304 Z M84.3553618,13.36 L85.7953618,13.36 L85.9393618,14.752 L86.0113618,14.752 C87.3713686,13.6319944 88.627356,13.072 89.7793618,13.072 C91.2673692,13.072 92.4073578,13.6039947 93.1993618,14.668 C93.9913658,15.7320053 94.3873618,17.1759909 94.3873618,19 C94.3873618,20.2800064 94.1553641,21.3959952 93.6913618,22.348 C93.2273595,23.3000048 92.6113656,24.0279975 91.8433618,24.532 C91.075358,25.0360025 90.2433663,25.288 89.3473618,25.288 C88.3073566,25.288 87.2033676,24.8320046 86.0353618,23.92 L86.0833618,25.984 L86.0833618,29.992 L84.3553618,29.992 L84.3553618,13.36 Z M89.0593618,23.8 C89.7313652,23.8 90.3353591,23.604002 90.8713618,23.212 C91.4073645,22.819998 91.8273603,22.2640036 92.1313618,21.544 C92.4353633,20.8239964 92.5873618,19.9840048 92.5873618,19.024 C92.5873618,17.631993 92.3273644,16.540004 91.8073618,15.748 C91.2873592,14.955996 90.4753673,14.56 89.3713618,14.56 C88.3953569,14.56 87.2993679,15.1199944 86.0833618,16.24 L86.0833618,22.528 C86.6113644,22.9760022 87.1313592,23.299999 87.6433618,23.5 C88.1553644,23.700001 88.6273596,23.8 89.0593618,23.8 Z M99.8326951,25.288 C99.1766918,25.288 98.6966966,25.084002 98.3926951,24.676 C98.0886936,24.267998 97.9366951,23.664004 97.9366951,22.864 L97.9366951,7.864 L99.6646951,7.864 L99.6646951,23.008 C99.6646951,23.2800014 99.7166946,23.4839993 99.8206951,23.62 C99.9246956,23.7560007 100.056694,23.824 100.216695,23.824 C100.344696,23.824 100.488694,23.8080002 100.648695,23.776 L100.888695,25.12 C100.584694,25.2320006 100.232697,25.288 99.8326951,25.288 Z M113.150028,18.52 C113.150028,18.9360021 113.126029,19.2879986 113.078028,19.576 L105.038028,19.576 C105.118029,20.9360068 105.538025,21.9919962 106.298028,22.744 C107.058032,23.4960038 107.990023,23.872 109.094028,23.872 C110.118034,23.872 111.102024,23.5600031 112.046028,22.936 L112.694028,24.088 C112.118026,24.4560018 111.526031,24.7479989 110.918028,24.964 C110.310025,25.1800011 109.630032,25.288 108.878028,25.288 C107.854023,25.288 106.922033,25.0440024 106.082028,24.556 C105.242024,24.0679976 104.578031,23.3600046 104.090028,22.432 C103.602026,21.5039954 103.358028,20.4240062 103.358028,19.192 C103.358028,17.9759939 103.602026,16.9040046 104.090028,15.976 C104.578031,15.0479954 105.222024,14.3320025 106.022028,13.828 C106.822032,13.3239975 107.670024,13.072 108.566028,13.072 C110.006036,13.072 111.130024,13.5559952 111.938028,14.524 C112.746032,15.4920048 113.150028,16.8239915 113.150028,18.52 Z M111.590028,18.304 C111.590028,17.0719938 111.326031,16.1280033 110.798028,15.472 C110.270026,14.8159967 109.534033,14.488 108.590028,14.488 C107.726024,14.488 106.958032,14.8159967 106.286028,15.472 C105.614025,16.1280033 105.214029,17.0719938 105.086028,18.304 L111.590028,18.304 Z M118.715362,25.288 C117.723357,25.288 116.907365,25.0000029 116.267362,24.424 C115.627359,23.8479971 115.307362,23.0400052 115.307362,22 C115.307362,20.7359937 115.883356,19.7640034 117.035362,19.084 C118.187368,18.4039966 120.027349,17.9280014 122.555362,17.656 C122.555362,16.7439954 122.367364,15.9960029 121.991362,15.412 C121.61536,14.8279971 120.971366,14.536 120.059362,14.536 C118.955356,14.536 117.779368,14.9599958 116.531362,15.808 L115.835362,14.608 C117.371369,13.5839949 118.875354,13.072 120.347362,13.072 C121.691368,13.072 122.683359,13.4919958 123.323362,14.332 C123.963365,15.1720042 124.283362,16.3279926 124.283362,17.8 L124.283362,25 L122.843362,25 L122.699362,23.584 L122.627362,23.584 C121.251355,24.7200057 119.947368,25.288 118.715362,25.288 Z M119.171362,23.872 C119.731365,23.872 120.279359,23.7400013 120.815362,23.476 C121.351364,23.2119987 121.931359,22.8000028 122.555362,22.24 L122.555362,18.832 C120.555352,19.0720012 119.135366,19.4399975 118.295362,19.936 C117.455358,20.4320025 117.035362,21.0879959 117.035362,21.904 C117.035362,22.5600033 117.23536,23.0519984 117.635362,23.38 C118.035364,23.7080016 118.547359,23.872 119.171362,23.872 Z M128.432695,13.36 L129.872695,13.36 L130.016695,15.496 L130.088695,15.496 C130.488697,14.7439962 130.976692,14.1520022 131.552695,13.72 C132.128698,13.2879978 132.744692,13.072 133.400695,13.072 C133.864697,13.072 134.264693,13.1519992 134.600695,13.312 L134.264695,14.848 C133.848693,14.7199994 133.480697,14.656 133.160695,14.656 C132.616692,14.656 132.076698,14.8799978 131.540695,15.328 C131.004692,15.7760022 130.544697,16.4719953 130.160695,17.416 L130.160695,25 L128.432695,25 L128.432695,13.36 Z M136.926028,13.36 L138.366028,13.36 L138.510028,15.088 L138.582028,15.088 C139.222032,14.4479968 139.850025,13.9520018 140.466028,13.6 C141.082031,13.2479982 141.758025,13.072 142.494028,13.072 C143.710034,13.072 144.606025,13.4519962 145.182028,14.212 C145.758031,14.9720038 146.046028,16.1039925 146.046028,17.608 L146.046028,25 L144.294028,25 L144.294028,17.824 C144.294028,16.7039944 144.11403,15.8880026 143.754028,15.376 C143.394027,14.8639974 142.806032,14.608 141.990028,14.608 C141.414025,14.608 140.878031,14.7559985 140.382028,15.052 C139.886026,15.3480015 139.310032,15.8239967 138.654028,16.48 L138.654028,25 L136.926028,25 L136.926028,13.36 Z M150.291362,13.36 L152.019362,13.36 L152.019362,25 L150.291362,25 L150.291362,13.36 Z M151.179362,10.864 C150.82736,10.864 150.539363,10.7520011 150.315362,10.528 C150.091361,10.3039989 149.979362,10.0080018 149.979362,9.64 C149.979362,9.28799824 150.091361,9.00400108 150.315362,8.788 C150.539363,8.57199892 150.82736,8.464 151.179362,8.464 C151.531363,8.464 151.819361,8.57199892 152.043362,8.788 C152.267363,9.00400108 152.379362,9.28799824 152.379362,9.64 C152.379362,10.0080018 152.267363,10.3039989 152.043362,10.528 C151.819361,10.7520011 151.531363,10.864 151.179362,10.864 Z M156.432695,13.36 L157.872695,13.36 L158.016695,15.088 L158.088695,15.088 C158.728698,14.4479968 159.356692,13.9520018 159.972695,13.6 C160.588698,13.2479982 161.264691,13.072 162.000695,13.072 C163.216701,13.072 164.112692,13.4519962 164.688695,14.212 C165.264698,14.9720038 165.552695,16.1039925 165.552695,17.608 L165.552695,25 L163.800695,25 L163.800695,17.824 C163.800695,16.7039944 163.620697,15.8880026 163.260695,15.376 C162.900693,14.8639974 162.312699,14.608 161.496695,14.608 C160.920692,14.608 160.384697,14.7559985 159.888695,15.052 C159.392693,15.3480015 158.816698,15.8239967 158.160695,16.48 L158.160695,25 L156.432695,25 L156.432695,13.36 Z M173.686028,30.424 C172.230021,30.424 171.066033,30.1440028 170.194028,29.584 C169.322024,29.0239972 168.886028,28.2560049 168.886028,27.28 C168.886028,26.7839975 169.034027,26.3040023 169.330028,25.84 C169.62603,25.3759977 170.046026,24.9600018 170.590028,24.592 L170.590028,24.496 C170.286027,24.303999 170.038029,24.0480016 169.846028,23.728 C169.654027,23.4079984 169.558028,23.0320022 169.558028,22.6 C169.558028,22.1519978 169.682027,21.7400019 169.930028,21.364 C170.17803,20.9879981 170.478027,20.6800012 170.830028,20.44 L170.830028,20.344 C170.414026,20.0079983 170.06203,19.5680027 169.774028,19.024 C169.486027,18.4799973 169.342028,17.8800033 169.342028,17.224 C169.342028,16.4079959 169.534026,15.6840032 169.918028,15.052 C170.30203,14.4199968 170.822025,13.9320017 171.478028,13.588 C172.134032,13.2439983 172.854024,13.072 173.638028,13.072 C174.166031,13.072 174.702026,13.167999 175.246028,13.36 L179.278028,13.36 L179.278028,14.728 L176.806028,14.728 C177.11003,15.0160014 177.358027,15.3839978 177.550028,15.832 C177.742029,16.2800022 177.838028,16.7519975 177.838028,17.248 C177.838028,18.048004 177.65403,18.7559969 177.286028,19.372 C176.918026,19.9880031 176.414032,20.4639983 175.774028,20.8 C175.134025,21.1360017 174.422032,21.304 173.638028,21.304 C172.998025,21.304 172.406031,21.1680014 171.862028,20.896 C171.606027,21.104001 171.410029,21.3159989 171.274028,21.532 C171.138028,21.7480011 171.070028,22.0159984 171.070028,22.336 C171.070028,22.7520021 171.226027,23.0759988 171.538028,23.308 C171.85003,23.5400012 172.382025,23.656 173.134028,23.656 L175.462028,23.656 C176.822035,23.656 177.830025,23.8799978 178.486028,24.328 C179.142032,24.7760022 179.470028,25.4719953 179.470028,26.416 C179.470028,27.1200035 179.230031,27.7799969 178.750028,28.396 C178.270026,29.0120031 177.590033,29.5039982 176.710028,29.872 C175.830024,30.2400018 174.822034,30.424 173.686028,30.424 Z M173.638028,20.104 C174.358032,20.104 174.970026,19.8360027 175.474028,19.3 C175.978031,18.7639973 176.230028,18.0720042 176.230028,17.224 C176.230028,16.3599957 175.982031,15.6680026 175.486028,15.148 C174.990026,14.6279974 174.374032,14.368 173.638028,14.368 C172.902025,14.368 172.282031,14.6279974 171.778028,15.148 C171.274026,15.6680026 171.022028,16.3599957 171.022028,17.224 C171.022028,18.0720042 171.274026,18.7639973 171.778028,19.3 C172.282031,19.8360027 172.902025,20.104 173.638028,20.104 Z M173.926028,29.176 C174.662032,29.176 175.322025,29.0600012 175.906028,28.828 C176.490031,28.5959988 176.942027,28.284002 177.262028,27.892 C177.58203,27.499998 177.742028,27.0880022 177.742028,26.656 C177.742028,26.1119973 177.54203,25.7240012 177.142028,25.492 C176.742026,25.2599988 176.134032,25.144 175.318028,25.144 L173.182028,25.144 C172.686026,25.144 172.190031,25.0800006 171.694028,24.952 C170.846024,25.544003 170.422028,26.239996 170.422028,27.04 C170.422028,27.6960033 170.734025,28.2159981 171.358028,28.6 C171.982031,28.9840019 172.838023,29.176 173.926028,29.176 Z M182.995362,25.288 C182.62736,25.288 182.315363,25.1560013 182.059362,24.892 C181.80336,24.6279987 181.675362,24.296002 181.675362,23.896 C181.675362,23.4799979 181.80336,23.1400013 182.059362,22.876 C182.315363,22.6119987 182.62736,22.48 182.995362,22.48 C183.363363,22.48 183.67536,22.6119987 183.931362,22.876 C184.187363,23.1400013 184.315362,23.4799979 184.315362,23.896 C184.315362,24.296002 184.187363,24.6279987 183.931362,24.892 C183.67536,25.1560013 183.363363,25.288 182.995362,25.288 Z M190.912695,25.288 C189.92069,25.288 189.104698,25.0000029 188.464695,24.424 C187.824692,23.8479971 187.504695,23.0400052 187.504695,22 C187.504695,20.7359937 188.080689,19.7640034 189.232695,19.084 C190.384701,18.4039966 192.224682,17.9280014 194.752695,17.656 C194.752695,16.7439954 194.564697,15.9960029 194.188695,15.412 C193.812693,14.8279971 193.1687,14.536 192.256695,14.536 C191.152689,14.536 189.976701,14.9599958 188.728695,15.808 L188.032695,14.608 C189.568703,13.5839949 191.072688,13.072 192.544695,13.072 C193.888702,13.072 194.880692,13.4919958 195.520695,14.332 C196.160698,15.1720042 196.480695,16.3279926 196.480695,17.8 L196.480695,25 L195.040695,25 L194.896695,23.584 L194.824695,23.584 C193.448688,24.7200057 192.144701,25.288 190.912695,25.288 Z M191.368695,23.872 C191.928698,23.872 192.476692,23.7400013 193.012695,23.476 C193.548698,23.2119987 194.128692,22.8000028 194.752695,22.24 L194.752695,18.832 C192.752685,19.0720012 191.332699,19.4399975 190.492695,19.936 C189.652691,20.4320025 189.232695,21.0879959 189.232695,21.904 C189.232695,22.5600033 189.432693,23.0519984 189.832695,23.38 C190.232697,23.7080016 190.744692,23.872 191.368695,23.872 Z M200.630028,13.36 L202.358028,13.36 L202.358028,25 L200.630028,25 L200.630028,13.36 Z M201.518028,10.864 C201.166026,10.864 200.878029,10.7520011 200.654028,10.528 C200.430027,10.3039989 200.318028,10.0080018 200.318028,9.64 C200.318028,9.28799824 200.430027,9.00400108 200.654028,8.788 C200.878029,8.57199892 201.166026,8.464 201.518028,8.464 C201.87003,8.464 202.158027,8.57199892 202.382028,8.788 C202.606029,9.00400108 202.718028,9.28799824 202.718028,9.64 C202.718028,10.0080018 202.606029,10.3039989 202.382028,10.528 C202.158027,10.7520011 201.87003,10.864 201.518028,10.864 Z" id="deeplearning.ai"></path>
            </g>
        </g>
    </g>
</svg>